<?xml version="1.0" standalone="no"?>
<!DOCTYPE svg PUBLIC "-//W3C//DTD SVG 20010904//EN"
 "http://www.w3.org/TR/2001/REC-SVG-20010904/DTD/svg10.dtd">
<svg version="1.0" xmlns="http://www.w3.org/2000/svg"
 width="1280.000000pt" height="1040.000000pt" viewBox="0 0 1280.000000 1040.000000"
 preserveAspectRatio="xMidYMid meet">
<metadata>
Created by potrace 1.15, written by Peter Selinger 2001-2017
</metadata>
<g transform="translate(0.000000,1040.000000) scale(0.100000,-0.100000)"
fill="#000000" stroke="none">
<path d="M8822 9578 c3 -18 29 -111 58 -207 l54 -174 -21 -17 c-15 -11 -49
-19 -109 -24 l-88 -6 -74 72 c-93 93 -135 150 -156 215 -19 58 -41 82 -58 65
-35 -35 -28 -234 13 -355 24 -69 92 -211 133 -275 14 -23 26 -47 26 -53 0 -6
-17 -41 -39 -77 -21 -37 -66 -121 -99 -187 -34 -67 -77 -139 -95 -160 -19 -22
-44 -60 -57 -84 -25 -51 -21 -78 28 -181 46 -95 38 -166 -65 -555 l-48 -179
-57 -32 c-32 -18 -58 -31 -58 -28 0 6 -61 -25 -80 -41 -8 -7 -71 -38 -140 -70
-133 -63 -150 -75 -150 -112 0 -15 -9 -27 -25 -35 -14 -6 -25 -16 -25 -21 0
-6 -3 -8 -6 -5 -3 3 -17 -6 -32 -20 -41 -38 -258 -138 -337 -155 -253 -55
-618 -46 -1000 24 -131 24 -480 116 -732 194 -198 61 -393 107 -545 130 -238
36 -477 5 -727 -95 -264 -105 -613 -283 -758 -386 -57 -40 -67 -44 -122 -44
-52 0 -73 6 -139 40 -85 44 -163 60 -282 59 -72 -1 -196 -15 -156 -18 40 -2 6
-10 -139 -30 -83 -12 -184 -30 -225 -42 -85 -23 -283 -99 -277 -105 2 -3 38 8
79 24 41 16 88 32 104 35 34 8 33 7 -111 -54 -444 -189 -783 -550 -871 -929
-37 -159 -257 -695 -384 -938 -27 -51 -44 -90 -39 -87 14 9 11 -16 -6 -49 -9
-16 -13 -31 -11 -34 3 -2 12 11 20 29 8 19 47 103 86 187 165 355 315 715 369
887 30 94 84 236 88 231 2 -2 -10 -46 -26 -98 -17 -51 -33 -110 -35 -131 -3
-20 -24 -88 -47 -150 -23 -61 -56 -155 -75 -207 -167 -479 -174 -498 -197
-533 -9 -15 -15 -27 -12 -27 3 0 1 -9 -5 -20 -9 -16 -8 -18 5 -14 9 4 22 19
31 35 21 42 24 36 8 -23 -7 -29 -14 -55 -13 -58 0 -3 18 31 40 75 32 66 105
260 146 389 13 43 33 46 23 4 -4 -18 -16 -64 -25 -103 -10 -38 -19 -90 -20
-115 -2 -25 -8 -101 -14 -170 -6 -69 -10 -152 -9 -185 0 -36 4 -11 10 65 9
124 59 458 78 515 8 26 9 24 4 -15 -3 -25 -7 -61 -9 -80 -3 -19 4 -3 14 35 23
87 26 67 6 -45 -21 -119 -32 -196 -50 -355 -10 -90 -23 -158 -39 -198 -26 -67
-37 -148 -26 -187 6 -23 8 -22 17 15 6 22 14 58 19 80 6 37 8 38 14 15 5 -14
8 -47 9 -73 1 -61 21 -59 37 4 l11 44 6 -45 c20 -146 28 -326 17 -388 -7 -35
-10 -87 -7 -115 5 -38 4 -48 -4 -37 -8 11 -9 8 -4 -13 3 -17 2 -26 -4 -23 -5
3 -12 -5 -15 -18 -3 -13 -8 -32 -11 -43 -3 -10 1 -4 9 12 8 17 16 23 16 15 2
-25 36 80 50 153 7 37 15 65 18 63 9 -10 2 -105 -14 -179 -9 -39 -17 -90 -19
-112 -2 -22 -13 -62 -26 -90 -25 -57 -48 -115 -44 -115 1 0 19 27 40 60 21 33
39 60 41 60 1 0 -10 -32 -26 -71 -30 -72 -82 -155 -149 -239 -19 -25 -28 -39
-18 -31 60 48 161 202 214 326 19 44 32 68 29 53 -3 -15 -2 -30 4 -33 5 -3 10
-1 10 6 0 7 2 10 5 7 3 -2 -2 -31 -10 -63 -9 -32 -14 -60 -11 -62 5 -6 32 65
46 125 7 29 14 51 16 49 7 -6 -18 -121 -39 -182 -12 -33 -22 -66 -23 -73 -1
-7 -10 -24 -19 -38 -9 -13 -13 -29 -10 -35 4 -5 -5 -30 -20 -54 -34 -58 -25
-58 11 -1 16 25 33 42 38 39 5 -4 7 1 3 10 -4 10 -2 16 5 14 6 -1 16 12 21 28
26 80 41 117 44 109 2 -6 -6 -36 -17 -69 -29 -83 -17 -80 15 5 15 39 29 70 30
68 5 -5 -31 -140 -48 -180 -9 -21 -30 -58 -47 -83 -17 -25 -28 -45 -24 -45 4
0 -2 -10 -13 -22 -11 -13 -24 -30 -28 -38 -4 -8 8 3 26 25 19 22 33 43 31 47
-1 4 2 8 6 8 5 0 18 18 31 40 12 22 24 40 27 40 7 0 -25 -73 -44 -100 -35 -48
-33 -55 3 -15 33 37 35 38 25 12 -13 -36 -56 -111 -89 -157 -14 -19 -19 -29
-10 -23 9 7 18 10 21 7 3 -3 16 10 29 28 12 18 39 51 58 73 20 22 44 51 54 65
11 16 10 9 -5 -20 -27 -54 -62 -153 -45 -126 7 10 22 31 35 46 12 15 22 31 22
36 0 4 -7 -1 -16 -12 -14 -18 -15 -18 -4 4 6 12 15 20 19 18 4 -3 23 26 41 64
45 94 49 83 5 -14 -19 -43 -37 -94 -40 -114 -3 -33 0 -29 36 38 46 87 42 58
-7 -48 -18 -39 -31 -72 -29 -72 5 0 115 199 115 208 0 4 15 32 34 63 18 31 48
99 66 152 35 101 48 121 31 46 -6 -24 -10 -60 -10 -79 l1 -35 8 33 c4 18 10
36 14 39 11 11 6 -33 -15 -133 -12 -54 -22 -126 -24 -159 l-2 -60 18 50 17 50
1 -40 c2 -54 21 -26 21 31 0 23 5 55 11 72 10 30 11 30 29 12 15 -15 18 -31
15 -102 l-4 -83 10 75 c6 41 15 91 20 110 6 19 14 71 19 115 9 78 9 77 6 -38
-3 -104 -2 -115 10 -91 8 14 14 43 15 63 1 33 2 34 9 11 6 -19 9 -9 10 40 1
49 4 59 10 40 8 -25 11 52 11 325 0 137 5 177 19 155 9 -15 6 111 -4 150 -3
14 5 -9 19 -50 14 -41 25 -88 26 -105 0 -16 5 -39 10 -50 7 -15 8 -10 5 20 -4
30 1 22 20 -35 13 -41 27 -92 30 -112 4 -21 10 -38 15 -38 12 0 12 1 -11 100
-28 121 -23 140 10 40 26 -79 66 -243 89 -365 6 -37 9 -42 10 -20 1 23 3 27
11 15 6 -9 10 -10 10 -3 0 6 -5 15 -11 19 -6 4 -8 21 -5 43 3 23 3 29 -3 16
-7 -16 -9 -14 -14 14 -4 19 -6 43 -6 55 1 16 3 14 10 -9 6 -20 7 -7 3 40 -6
80 -118 526 -168 672 -51 144 -51 147 -1 48 26 -49 43 -80 40 -67 -10 37 2 25
36 -35 18 -31 40 -64 49 -73 9 -9 41 -62 70 -118 30 -56 55 -100 57 -98 1 1
-11 34 -27 72 -16 38 -30 76 -30 85 0 8 -14 41 -31 73 -17 31 -29 59 -26 62 2
3 51 -75 107 -173 57 -98 116 -197 131 -220 16 -23 29 -45 29 -50 0 -11 109
-220 110 -211 0 13 -135 292 -217 446 -43 81 -78 152 -78 157 0 6 -11 21 -23
33 -13 13 -20 27 -17 32 4 6 2 10 -3 10 -11 0 -156 234 -168 270 -4 14 -8 33
-9 42 -1 10 -9 26 -19 37 -10 11 -18 25 -20 33 -1 7 -5 19 -9 25 -14 22 -47
126 -42 131 2 3 11 -1 20 -8 8 -7 15 -9 15 -5 0 4 11 -4 26 -20 33 -36 40 -27
13 19 -12 21 -32 63 -45 94 -13 31 -24 48 -24 37 -1 -36 -16 4 -35 93 -12 61
-14 87 -6 95 8 8 11 6 11 -8 0 -15 2 -17 9 -7 4 8 6 28 4 45 -2 18 -8 61 -12
97 l-8 65 -2 -69 c0 -38 -3 -67 -6 -65 -2 3 -9 43 -14 90 -11 93 -3 375 10
344 4 -11 8 -42 8 -70 1 -36 4 -46 11 -35 9 14 6 72 -6 125 -4 15 -3 17 4 5 5
-8 17 -48 26 -89 17 -79 77 -253 107 -312 9 -19 36 -59 59 -87 22 -29 37 -52
33 -53 -12 -1 30 -18 47 -18 9 -1 4 7 -11 17 -50 33 -116 130 -101 147 4 5 1
5 -7 0 -10 -6 -12 -2 -6 16 5 20 4 21 -5 9 -10 -12 -11 -11 -7 8 3 13 1 20 -5
16 -6 -4 -8 2 -3 16 5 17 4 21 -6 15 -9 -6 -11 -3 -6 9 5 11 3 15 -5 10 -8 -5
-9 0 -5 15 3 13 3 20 -1 16 -10 -10 -41 92 -35 116 5 16 3 20 -6 14 -10 -5
-11 -2 -7 12 3 11 -8 64 -24 119 -25 80 -30 109 -24 149 9 67 48 157 102 234
25 35 45 71 45 78 0 8 13 23 28 34 16 11 38 34 50 52 18 27 16 26 -16 -8 -34
-38 -35 -38 -11 -5 13 19 51 57 83 85 32 27 52 42 44 32 -15 -20 -2 -23 18 -4
8 6 -14 -22 -48 -63 -69 -83 -181 -274 -180 -305 1 -18 2 -19 6 -1 6 24 87
158 134 221 44 60 116 129 186 179 54 38 203 105 184 82 -7 -8 21 -2 70 16 79
28 244 62 258 54 9 -6 198 22 235 34 22 8 27 7 23 -4 -3 -7 -23 -57 -46 -112
-56 -139 -89 -329 -92 -534 -4 -274 63 -694 156 -975 25 -75 88 -196 155 -294
83 -125 119 -198 126 -257 7 -59 8 -57 -113 -261 -135 -230 -241 -360 -424
-518 -25 -22 -59 -60 -75 -84 l-29 -45 -1 -450 c0 -410 -2 -466 -23 -611 -18
-135 -42 -258 -67 -350 -4 -17 -3 -17 6 -5 12 16 13 20 -10 -69 -6 -24 -9 -55
-5 -69 3 -13 0 -67 -6 -119 -13 -98 -37 -150 -65 -139 -8 3 -14 1 -14 -3 0 -5
-9 -7 -20 -4 -39 10 -66 -4 -65 -34 1 -15 -1 -32 -4 -38 -10 -20 -7 -47 6 -52
7 -3 13 -11 13 -18 0 -7 5 -15 12 -17 6 -2 -3 -14 -20 -27 -18 -12 -30 -27
-27 -32 4 -5 -2 -9 -12 -9 -17 -1 -17 -1 -1 -14 15 -11 15 -14 2 -28 -8 -8
-16 -26 -18 -39 -1 -13 -13 -46 -26 -73 -20 -45 -22 -58 -16 -142 18 -239 130
-484 221 -484 38 0 144 48 189 86 23 18 75 74 116 123 41 50 78 90 83 91 4 0
7 -15 8 -32 0 -18 3 -27 6 -20 7 18 23 4 17 -16 -3 -9 2 -6 10 8 12 20 15 22
16 7 0 -10 4 -16 9 -12 5 3 11 -3 14 -12 3 -15 6 -14 15 7 6 14 11 21 12 15 1
-5 5 -1 10 10 7 15 8 10 4 -16 -6 -36 5 -54 36 -61 8 -2 18 -7 22 -13 4 -6 8
-2 8 8 0 14 3 15 19 5 11 -7 23 -23 26 -37 4 -17 9 -21 14 -12 4 6 14 11 22 9
10 -2 15 10 17 47 l3 50 16 -35 c9 -19 17 -50 17 -69 1 -26 6 -35 21 -37 11
-2 23 2 27 9 5 8 8 5 9 -8 l0 -20 8 20 c8 19 8 19 15 -3 4 -13 12 -22 18 -20
6 2 23 -8 37 -23 26 -26 32 -27 181 -33 151 -7 459 6 481 19 11 7 9 33 -6 69
-6 14 -5 17 3 12 9 -5 9 0 2 19 -6 15 -8 30 -6 34 17 27 -96 212 -173 285 -17
17 -31 35 -31 40 0 6 5 3 11 -6 5 -10 14 -18 20 -18 5 0 -44 53 -110 118 -190
187 -211 245 -267 737 -28 251 -6 701 41 835 8 25 35 86 59 135 24 50 67 138
95 196 53 109 137 223 310 419 160 182 274 377 357 615 29 84 105 213 206 349
33 44 75 110 93 146 18 36 42 73 52 83 20 17 22 16 73 -18 30 -20 63 -35 74
-33 15 2 34 28 66 90 61 117 57 114 127 99 95 -21 208 -84 396 -221 99 -71
211 -147 251 -169 140 -78 423 -176 636 -220 200 -42 441 -58 981 -68 l365 -6
-4 -241 c-3 -148 0 -306 8 -411 10 -134 10 -194 1 -280 -66 -615 -63 -573 -45
-710 8 -66 16 -165 17 -220 2 -150 -38 -430 -88 -610 -13 -49 -22 -91 -20 -93
2 -2 11 20 19 49 67 236 68 221 5 -65 -22 -99 -37 -188 -33 -199 3 -11 2 -17
-3 -14 -5 3 -10 -67 -11 -156 -2 -89 -8 -184 -13 -212 -6 -27 -12 -92 -14
-144 -4 -82 -3 -92 10 -81 13 11 15 8 15 -15 0 -23 2 -25 14 -15 12 9 16 5 22
-24 3 -20 10 -36 15 -36 5 0 9 -6 9 -14 0 -8 7 -16 15 -20 8 -3 15 -17 15 -31
0 -14 4 -25 9 -25 5 0 15 -16 22 -35 7 -19 18 -35 24 -35 7 0 17 -11 23 -25 7
-14 22 -29 35 -34 80 -31 656 -51 689 -24 29 24 12 194 -27 273 -12 25 -26 56
-30 70 -10 36 -63 119 -106 167 -74 82 -123 203 -171 427 -26 125 -31 166 -35
363 -7 265 6 429 48 598 17 66 41 175 55 242 13 68 29 135 35 151 6 15 15 91
19 170 13 197 69 392 182 632 l55 115 12 -55 c41 -183 56 -546 31 -743 -19
-156 -16 -253 10 -337 44 -142 28 -396 -47 -734 -28 -126 -34 -171 -25 -174
18 -6 15 -64 -12 -256 -13 -94 -29 -218 -35 -276 -7 -58 -14 -116 -17 -131 -5
-20 0 -27 20 -37 22 -10 26 -18 26 -54 0 -24 5 -50 10 -58 6 -9 10 -11 10 -3
0 18 28 5 33 -15 3 -10 5 -5 6 11 1 36 19 34 35 -5 12 -27 15 -29 19 -12 3 12
5 6 7 -16 1 -19 4 -29 7 -22 4 10 9 8 20 -7 8 -12 18 -19 22 -17 4 3 15 -6 25
-19 16 -21 20 -22 32 -10 8 8 22 11 31 8 12 -5 14 -3 9 8 -4 8 0 5 8 -5 9 -11
16 -28 16 -37 0 -21 20 -37 20 -17 1 7 7 1 16 -14 9 -17 20 -25 29 -22 8 4 15
1 15 -7 0 -7 3 -9 6 -6 4 4 19 -4 35 -17 26 -22 40 -24 196 -31 163 -8 396 -2
460 11 l32 6 -4 59 c-2 32 -7 63 -10 69 -3 5 -1 10 5 10 8 0 8 6 0 20 -6 11
-8 25 -5 30 4 6 -9 32 -27 58 -19 26 -51 72 -72 102 -21 30 -55 73 -75 95 -21
24 -25 30 -8 16 15 -14 27 -21 27 -17 0 5 -52 59 -115 120 -98 96 -119 123
-149 187 -50 108 -74 207 -107 433 -24 162 -29 234 -29 371 0 171 5 205 49
369 11 44 21 93 21 110 0 17 10 72 21 121 14 62 23 154 29 300 14 321 42 426
205 765 119 247 144 315 180 495 15 72 34 138 42 147 9 10 40 31 70 48 135 76
214 188 310 440 87 227 102 361 68 610 -26 199 -94 538 -117 587 -6 12 -7 36
-3 55 3 18 9 57 12 86 3 28 9 50 14 46 5 -3 10 12 10 33 1 21 3 30 6 21 11
-43 23 -11 24 65 2 125 14 149 22 42 7 -97 0 -176 -14 -154 -4 7 -5 -23 -2
-66 7 -93 13 -110 14 -39 0 57 20 159 33 171 5 4 7 -37 4 -97 -3 -58 -2 -91 2
-75 7 27 8 25 9 -17 0 -27 5 -48 10 -48 12 0 21 53 21 131 0 58 3 69 17 69 9
0 14 3 11 6 -4 3 0 24 7 47 7 23 17 56 21 72 7 27 8 24 20 -35 l13 -65 -3 85
c-2 51 -1 75 4 60 8 -25 8 -25 10 5 5 65 20 -50 29 -210 l8 -160 1 170 c1 108
-4 202 -13 259 -8 49 -12 99 -9 111 3 11 -6 54 -19 95 -14 41 -27 95 -31 120
-4 35 2 25 28 -50 53 -148 42 -89 -20 102 -30 95 -59 187 -65 204 -11 36 -12
94 -1 94 4 0 8 27 8 60 1 33 5 82 9 108 7 45 8 46 17 20 5 -16 14 -28 19 -28
4 0 6 -6 3 -14 -3 -8 -1 -23 6 -33 9 -16 10 -15 5 7 -5 22 -4 23 5 7 7 -10 9
-25 6 -33 -3 -8 -1 -14 3 -14 5 0 7 -10 3 -22 -3 -14 -2 -19 6 -14 8 5 12 -2
12 -21 0 -15 7 -46 15 -68 8 -22 14 -54 15 -72 0 -17 5 -33 12 -35 6 -2 13
-32 16 -69 4 -47 7 -59 13 -44 6 14 8 5 7 -30 -1 -27 0 -63 2 -80 3 -26 4 -24
10 15 6 41 7 39 9 -30 2 -49 5 -68 10 -55 5 12 10 -39 13 -125 2 -84 9 -153
16 -165 9 -16 11 -6 12 59 0 70 7 111 29 166 3 8 7 -12 9 -45 3 -42 6 -54 12
-40 5 14 9 1 14 -45 11 -116 13 -126 15 -69 0 31 7 64 16 75 10 13 14 44 15
97 0 44 4 77 10 77 6 0 10 -20 10 -44 0 -25 4 -47 9 -50 4 -3 11 71 15 165 5
108 13 182 21 202 12 27 21 23 16 -5 0 -5 3 -8 8 -8 6 0 12 17 14 38 2 22 4 8
5 -33 2 -49 5 -66 12 -55 7 10 10 -9 12 -65 1 -55 3 -65 5 -32 3 29 8 45 14
41 6 -3 10 2 9 12 -1 11 -1 33 0 49 2 26 4 23 15 -20 l13 -50 2 43 c1 23 4 47
5 52 1 6 4 27 5 48 l3 37 7 -40 c6 -34 7 -29 9 35 2 56 5 69 11 53 5 -13 14
-23 19 -23 6 0 12 -21 14 -47 7 -67 -2 202 -9 312 -4 55 -3 86 3 80 15 -16 34
-132 29 -173 l-6 -37 11 34 c11 35 -3 153 -20 176 -8 10 -36 160 -62 329 -9
59 -15 75 -21 60 -5 -12 -6 -5 -3 21 5 31 3 37 -6 25 -9 -13 -10 -12 -5 3 3
10 6 24 7 30 1 7 12 -19 24 -58 19 -56 24 -64 25 -40 2 30 2 30 10 5 l8 -25 2
25 c2 20 5 16 16 -19 17 -56 28 -67 21 -21 -3 19 -2 43 2 53 6 15 10 12 28
-20 11 -21 35 -73 53 -116 18 -43 34 -76 37 -74 2 3 -8 30 -22 62 -29 66 -31
77 -10 49 21 -28 18 -7 -10 80 -14 43 -23 81 -20 86 2 4 -9 34 -25 66 l-31 59
31 -35 c16 -19 30 -31 30 -27 0 5 11 -5 25 -20 l25 -28 -16 35 c-9 19 -33 55
-53 80 -63 79 -67 85 -52 76 7 -5 -5 20 -28 55 l-42 64 52 -55 c28 -30 43 -41
32 -25 -11 17 -23 37 -26 45 -4 8 -15 26 -24 40 -10 13 -12 21 -5 16 7 -4 26
-26 42 -47 16 -22 31 -36 34 -30 3 5 -30 48 -74 95 -44 47 -80 92 -80 98 1 7
17 -5 37 -27 42 -47 33 -30 -20 37 -21 26 -36 53 -35 59 2 7 -4 13 -12 14 -8
0 -17 9 -20 20 -12 46 -231 367 -336 492 -52 62 -94 118 -94 126 0 8 -9 26
-20 40 -11 14 -20 30 -20 37 0 6 -3 9 -7 7 -5 -3 -19 11 -33 30 -115 161 -215
230 -421 294 -106 33 -222 43 -294 26 -22 -6 -26 -5 -15 3 8 5 29 10 45 11 19
1 23 3 12 6 -29 7 -148 -16 -189 -37 -21 -11 -68 -24 -105 -30 -37 -6 -72 -15
-78 -20 -19 -16 -70 17 -146 97 -42 43 -86 94 -99 111 -30 41 -43 41 -38 0z
m1479 -1730 c18 -28 44 -74 57 -102 13 -28 29 -58 37 -66 7 -8 23 -48 34 -88
35 -127 34 -120 17 -92 -20 33 -20 28 4 -55 11 -38 19 -92 19 -120 -1 -50 -1
-49 -15 25 -8 41 -22 104 -32 140 -9 36 -16 73 -15 83 2 12 -1 16 -9 11 -8 -5
-9 -2 -5 10 4 11 3 15 -4 10 -8 -4 -9 1 -4 16 5 17 4 21 -5 15 -8 -5 -11 -4
-7 2 4 5 -10 40 -29 77 -34 64 -86 186 -79 186 1 0 18 -23 36 -52z m479 -73
c0 -5 -5 -3 -10 5 -5 8 -10 20 -10 25 0 6 5 3 10 -5 5 -8 10 -19 10 -25z
m-400 -200 c0 -5 -5 -3 -10 5 -5 8 -10 20 -10 25 0 6 5 3 10 -5 5 -8 10 -19
10 -25z m29 -77 c11 -34 19 -63 17 -65 -2 -3 -12 20 -21 49 -10 29 -20 59 -23
66 -2 6 -2 12 1 12 3 0 15 -28 26 -62z m85 -110 c10 -63 1 -55 -16 14 -11 44
-12 57 -3 45 7 -10 15 -36 19 -59z m66 -288 c0 -32 -4 -62 -10 -65 -6 -4 -10
20 -10 65 0 45 4 69 10 65 6 -3 10 -33 10 -65z m-3 -122 c-3 -7 -5 -2 -5 12 0
14 2 19 5 13 2 -7 2 -19 0 -25z m50 -5 c-3 -10 -5 -4 -5 12 0 17 2 24 5 18 2
-7 2 -21 0 -30z m-20 -80 c-3 -10 -5 -4 -5 12 0 17 2 24 5 18 2 -7 2 -21 0
-30z m-20 -150 c-3 -10 -5 -4 -5 12 0 17 2 24 5 18 2 -7 2 -21 0 -30z m-90
-95 c-3 -7 -5 -2 -5 12 0 14 2 19 5 13 2 -7 2 -19 0 -25z m-50 -150 c-3 -7 -5
-2 -5 12 0 14 2 19 5 13 2 -7 2 -19 0 -25z m-168 -57 c1 -35 -5 -22 -12 24 -5
28 -4 34 3 20 5 -11 9 -31 9 -44z m-42 -118 c-3 -10 -5 -4 -5 12 0 17 2 24 5
18 2 -7 2 -21 0 -30z m-30 -70 c-2 -16 -4 -5 -4 22 0 28 2 40 4 28 2 -13 2
-35 0 -50z m-160 -5 c-3 -8 -6 -5 -6 6 -1 11 2 17 5 13 3 -3 4 -12 1 -19z
m-8673 -1009 c-38 -109 -75 -201 -62 -153 14 51 104 302 106 295 1 -4 -18 -68
-44 -142z m110 112 c-4 -17 -9 -30 -11 -27 -3 2 -2 19 2 36 9 41 17 33 9 -9z
m-47 -153 c-3 -8 -6 -5 -6 6 -1 11 2 17 5 13 3 -3 4 -12 1 -19z m20 -20 c-3
-7 -5 -2 -5 12 0 14 2 19 5 13 2 -7 2 -19 0 -25z m-166 -183 c-11 -32 -17 -63
-15 -67 7 -11 -14 -76 -27 -83 -5 -3 -6 2 -2 11 4 11 3 15 -5 10 -6 -3 6 41
26 98 38 109 57 134 23 31z m984 -866 c9 -17 15 -33 13 -35 -3 -2 -12 12 -21
31 -21 43 -13 47 8 4z m-670 -419 c-9 -41 -17 -33 -9 9 4 17 9 30 11 27 3 -2
2 -19 -2 -36z m702 -162 c-3 -8 -6 -5 -6 6 -1 11 2 17 5 13 3 -3 4 -12 1 -19z
m-230 -170 c-3 -7 -5 -2 -5 12 0 14 2 19 5 13 2 -7 2 -19 0 -25z m-451 -92
c-21 -49 -28 -46 -9 4 9 22 18 38 20 36 2 -2 -3 -20 -11 -40z m341 -68 c-3 -8
-6 -5 -6 6 -1 11 2 17 5 13 3 -3 4 -12 1 -19z m5853 -1753 c-6 -31 -14 -55
-16 -52 -2 2 1 29 7 61 7 31 14 54 16 52 3 -2 -1 -30 -7 -61z m-23 -87 c-3 -8
-6 -5 -6 6 -1 11 2 17 5 13 3 -3 4 -12 1 -19z m-10 -40 c-3 -8 -6 -5 -6 6 -1
11 2 17 5 13 3 -3 4 -12 1 -19z"/>
<path d="M10910 8006 c0 -2 8 -10 18 -17 15 -13 16 -12 3 4 -13 16 -21 21 -21
13z"/>
<path d="M10840 7731 c0 -6 4 -13 10 -16 6 -3 7 1 4 9 -7 18 -14 21 -14 7z"/>
<path d="M10772 6890 c0 -14 2 -19 5 -12 2 6 2 18 0 25 -3 6 -5 1 -5 -13z"/>
<path d="M10646 6838 c-3 -13 -5 -32 -5 -43 1 -11 5 -2 10 19 10 42 6 62 -5
24z"/>
<path d="M10322 6815 c0 -16 2 -22 5 -12 2 9 2 23 0 30 -3 6 -5 -1 -5 -18z"/>
<path d="M10733 6750 c0 -30 2 -43 4 -27 2 15 2 39 0 55 -2 15 -4 2 -4 -28z"/>
<path d="M10331 6754 c0 -11 3 -14 6 -6 3 7 2 16 -1 19 -3 4 -6 -2 -5 -13z"/>
<path d="M10609 6718 c4 -28 6 -29 9 -9 2 13 0 27 -5 32 -6 6 -7 -3 -4 -23z"/>
<path d="M10341 6714 c0 -11 3 -14 6 -6 3 7 2 16 -1 19 -3 4 -6 -2 -5 -13z"/>
<path d="M10356 6694 c-9 -25 -7 -72 4 -79 6 -4 10 13 10 44 0 53 -4 62 -14
35z"/>
<path d="M2158 6584 c-39 -21 -35 -28 5 -8 37 19 44 24 31 24 -5 -1 -21 -8
-36 -16z"/>
<path d="M10348 6580 c-11 -38 -10 -56 3 -43 6 6 9 23 7 39 l-3 29 -7 -25z"/>
<path d="M10381 6564 c0 -11 3 -14 6 -6 3 7 2 16 -1 19 -3 4 -6 -2 -5 -13z"/>
<path d="M10593 6510 c0 -25 2 -35 4 -22 2 12 2 32 0 45 -2 12 -4 2 -4 -23z"/>
<path d="M10542 6460 c0 -19 2 -27 5 -17 2 9 2 25 0 35 -3 9 -5 1 -5 -18z"/>
<path d="M10381 6444 c0 -11 3 -14 6 -6 3 7 2 16 -1 19 -3 4 -6 -2 -5 -13z"/>
<path d="M10343 6345 c0 -27 2 -38 4 -22 2 15 2 37 0 50 -2 12 -4 0 -4 -28z"/>
<path d="M2304 6148 l-29 -33 33 29 c17 17 32 31 32 33 0 8 -8 1 -36 -29z"/>
<path d="M10231 6164 c0 -11 3 -14 6 -6 3 7 2 16 -1 19 -3 4 -6 -2 -5 -13z"/>
<path d="M10052 6150 c0 -14 2 -19 5 -12 2 6 2 18 0 25 -3 6 -5 1 -5 -13z"/>
<path d="M10122 6030 c0 -14 2 -19 5 -12 2 6 2 18 0 25 -3 6 -5 1 -5 -13z"/>
<path d="M10103 5935 c0 -44 2 -61 4 -37 2 23 2 59 0 80 -2 20 -4 1 -4 -43z"/>
<path d="M2370 4992 c8 -5 26 -13 40 -16 17 -5 20 -4 10 2 -8 5 -26 13 -40 16
-17 5 -20 4 -10 -2z"/>
<path d="M2032 4960 c0 -14 2 -19 5 -12 2 6 2 18 0 25 -3 6 -5 1 -5 -13z"/>
<path d="M2042 4900 c0 -14 2 -19 5 -12 2 6 2 18 0 25 -3 6 -5 1 -5 -13z"/>
<path d="M1064 4609 c-19 -22 -19 -22 4 -10 12 6 22 16 22 21 0 15 -5 12 -26
-11z"/>
<path d="M2205 4560 c-4 -6 3 -10 14 -10 25 0 27 6 6 13 -8 4 -17 2 -20 -3z"/>
<path d="M2190 4516 c0 -2 8 -10 18 -17 15 -13 16 -12 3 4 -13 16 -21 21 -21
13z"/>
<path d="M2261 4501 c21 -14 75 -23 63 -11 -5 5 -25 12 -44 15 -26 5 -31 4
-19 -4z"/>
<path d="M2301 4465 c13 -13 69 -29 69 -20 0 7 -40 26 -63 30 -18 4 -19 3 -6
-10z"/>
<path d="M1322 4293 c-14 -26 -16 -63 -2 -63 12 0 23 42 18 67 -4 16 -5 16
-16 -4z"/>
<path d="M1260 4199 c0 -5 5 -7 10 -4 6 3 10 8 10 11 0 2 -4 4 -10 4 -5 0 -10
-5 -10 -11z"/>
<path d="M1331 4061 c-1 -8 -11 -26 -23 -40 l-22 -26 28 26 c16 15 26 33 23
40 -4 11 -6 11 -6 0z"/>
<path d="M1486 3445 c-9 -26 -7 -32 5 -12 6 10 9 21 6 23 -2 3 -7 -2 -11 -11z"/>
<path d="M2321 3334 c0 -11 3 -14 6 -6 3 7 2 16 -1 19 -3 4 -6 -2 -5 -13z"/>
<path d="M2332 3245 c0 -16 2 -22 5 -12 2 9 2 23 0 30 -3 6 -5 -1 -5 -18z"/>
<path d="M2342 3190 c0 -14 2 -19 5 -12 2 6 2 18 0 25 -3 6 -5 1 -5 -13z"/>
<path d="M2012 3100 c0 -19 2 -27 5 -17 2 9 2 25 0 35 -3 9 -5 1 -5 -18z"/>
<path d="M1982 3080 c0 -14 2 -19 5 -12 2 6 2 18 0 25 -3 6 -5 1 -5 -13z"/>
<path d="M7711 1144 c0 -11 3 -14 6 -6 3 7 2 16 -1 19 -3 4 -6 -2 -5 -13z"/>
<path d="M7702 1060 c0 -19 2 -27 5 -17 2 9 2 25 0 35 -3 9 -5 1 -5 -18z"/>
<path d="M7692 980 c0 -19 2 -27 5 -17 2 9 2 25 0 35 -3 9 -5 1 -5 -18z"/>
<path d="M7682 920 c0 -14 2 -19 5 -12 2 6 2 18 0 25 -3 6 -5 1 -5 -13z"/>
<path d="M7666 849 c-4 -23 -5 -44 -2 -46 2 -2 7 14 11 37 4 23 5 43 2 46 -2
3 -7 -14 -11 -37z"/>
</g>
</svg>
